Coordinates
version=1
nRows=19
nColumns=36
inDegrees=yes

Units are S.I. units (second, meters, Newtons, ...)
If the header above contains a line with 'inDegrees', this indicates whether rotational values are in degrees (yes) or radians (no).

endheader
time	pelvis_tilt	pelvis_list	pelvis_rotation	pelvis_tx	pelvis_ty	pelvis_tz	hip_flexion_r	hip_adduction_r	hip_rotation_r	knee_angle_r	knee_angle_r_beta	ankle_angle_r	subtalar_angle_r	mtp_angle_r	hip_flexion_l	hip_adduction_l	hip_rotation_l	knee_angle_l	knee_angle_l_beta	ankle_angle_l	subtalar_angle_l	mtp_angle_l	lumbar_extension	lumbar_bending	lumbar_rotation	arm_flex_r	arm_add_r	arm_rot_r	elbow_flex_r	pro_sup_r	arm_flex_l	arm_add_l	arm_rot_l	elbow_flex_l	pro_sup_l
      2.80000000	    -11.43750559	     -1.19358801	      6.21191838	     -0.12662130	      1.25355831	     -0.10399564	     24.91861838	     -8.04462929	    -17.67364119	     12.28398870	      0.21439605	    -37.52895902	    -11.87634841	     -7.49999987	     21.86735785	     -1.21602002	     -4.68298007	     16.83588901	      0.29384170	    -28.32749513	      1.38991858	     -7.49999987	    -12.49194912	      3.94859622	     -1.93471043	     51.33109080	     -6.72232176	     13.29088306	    104.25489626	     81.58287867	     57.04146385	    -17.53144861	     28.40977167	     93.25018623	     61.69490111
      2.80416670	    -11.51327529	     -1.06034869	      6.28267380	     -0.12176007	      1.24421371	     -0.10328626	     25.28296606	     -8.27507913	    -17.14284133	     11.88873399	      0.20749755	    -36.69365009	    -11.42198069	     -7.49999987	     22.43992416	     -1.08094860	     -4.50291899	     16.70143408	      0.29149501	    -28.06863769	      0.90334533	     -7.49999987	    -12.38398695	      3.72971837	     -1.82269336	     51.12751969	     -6.95266528	     13.41451960	    104.96346986	     81.92540854	     57.10705622	    -18.04627535	     28.84973662	     93.33677049	     61.97856431
      2.80833330	    -11.52593070	     -0.91443781	      6.37114153	     -0.11628259	      1.24521526	     -0.10346966	     25.43701984	     -8.46219957	    -16.84247617	     11.40861287	      0.19911786	    -36.12282796	    -10.21526813	     -7.49999987	     23.00041882	     -0.97561616	     -4.09759606	     16.22175341	      0.28312301	    -28.88758032	      0.86425661	     -7.49999987	    -12.61406372	      3.51409409	     -1.29185764	     50.30617709	     -7.31133427	     12.68343092	    106.29867022	     86.93978362	     57.33091697	    -17.99786531	     29.55681294	     93.00987624	     65.42803498
      2.81250000	    -11.37474709	     -0.84605975	      6.38172015	     -0.11111351	      1.24000565	     -0.10319971	     25.25428419	     -8.48747924	    -16.33948399	     10.70663404	      0.18686602	    -35.74373590	     -9.74210106	     -7.49999987	     23.26403059	     -1.01900315	     -3.91899227	     15.44580172	      0.26958010	    -29.40951824	      1.07107366	     -7.49999987	    -12.85076290	      3.48577921	     -1.28974487	     50.07913309	     -7.23199540	     12.82044140	    106.70867653	     87.12341573	     57.31188469	    -18.39873190	     29.61935888	     92.89735077	     65.48440036
      2.81666670	    -11.09716791	     -0.84938156	      6.22375914	     -0.10458283	      1.23172551	     -0.10264374	     25.18707292	     -8.51234168	    -15.98250278	     10.21214149	      0.17823549	    -35.18646594	     -8.68457718	     -7.49999987	     23.29325329	     -1.13580948	     -4.08331156	     14.66176414	      0.25589606	    -29.33528350	      0.89647638	     -7.49999987	    -13.31533546	      3.43600404	     -1.13027541	     50.03545598	     -7.24630773	     13.39830562	    107.17773899	     84.59978406	     57.33397327	    -19.01498044	     30.07690965	     93.33838301	     65.13541794
      2.82083330	    -11.29420810	     -0.94792434	      5.78384520	     -0.09712548	      1.22356828	     -0.10222136	     25.72313579	     -8.29049918	    -15.93574300	      9.84129996	      0.17176309	    -35.52725023	     -8.30564544	     -7.49999987	     23.61602059	     -1.36984438	     -3.94278788	     13.64582588	      0.23816459	    -29.43864463	      1.85642591	     -7.49999987	    -12.70043723	      3.21799634	     -0.99030181	     49.50024391	     -7.13912347	     13.74311416	    106.48249834	     83.24591887	     56.80201400	    -19.24448849	     30.34349470	     92.84145735	     64.90456656
      2.82500000	    -10.79266025	     -1.04637747	      5.67110817	     -0.09179393	      1.21874788	     -0.10310087	     25.36427097	     -8.18052612	    -15.14942732	      9.26720598	      0.16174326	    -35.74707431	     -8.71608093	     -7.49999987	     23.59876459	     -1.49347746	     -3.59188747	     13.38016567	      0.23352795	    -29.38212825	      1.30653250	     -7.49999987	    -13.57124160	      3.21763963	     -0.25011038	     48.83124320	     -7.88228140	     13.03506217	    108.24120036	     88.01722700	     56.87424423	    -19.29621043	     30.82901352	     93.46340176	     67.48182462
      2.82916670	    -10.71476134	     -1.00321940	      5.29314905	     -0.08701303	      1.21491847	     -0.10280786	     25.69258691	     -8.05537119	    -15.14726259	      8.95898891	      0.15636385	    -35.92066631	     -9.11174112	     -7.49999987	     24.00685646	     -1.62892271	     -3.48012180	     13.17477169	      0.22994314	    -29.79680362	      1.24037278	     -7.49999987	    -13.82888867	      3.15631862	      0.15059650	     48.66370949	     -8.09219865	     13.49475076	    108.18296506	     85.74324135	     56.26643885	    -19.43543777	     30.75342226	     93.75892685	     66.95946410
      2.83333330	    -10.45340015	     -1.12064400	      5.14629781	     -0.08118164	      1.21059603	     -0.10249579	     25.64503821	     -7.87318897	    -15.05167675	      8.62805141	      0.15058791	    -35.68327722	     -8.71747373	     -7.49999987	     24.21740663	     -1.89478108	     -3.58081170	     12.72956393	      0.22217280	    -30.18087259	      0.74984996	     -7.49999987	    -14.41437890	      3.29358069	      0.59066257	     48.34210418	     -8.55013980	     13.58662206	    108.90838256	     85.37798682	     55.66891505	    -19.38951573	     30.49577340	     94.40947755	     66.99112162
      2.83750000	    -10.26847131	     -1.22080454	      4.83857681	     -0.07495489	      1.20285676	     -0.10307491	     25.72123544	     -7.61700871	    -14.90085343	      8.26215772	      0.14420186	    -35.48959089	     -8.72806496	     -7.49999987	     24.43059888	     -2.15624740	     -3.10947389	     12.09404034	      0.21108082	    -30.09364273	      0.91523131	     -7.49999987	    -14.70604484	      3.46672832	      0.99322909	     48.10320412	     -8.80299678	     13.68118434	    109.11005205	     85.62571727	     55.29180666	    -19.50289950	     30.55859403	     94.65024339	     67.12867340
      2.84166670	    -10.15434968	     -1.44761306	      4.57787542	     -0.06942605	      1.19074540	     -0.10264435	     25.90286897	     -7.28273119	    -14.25629094	      8.02975929	      0.14014574	    -34.98470477	     -8.64025514	     -7.49999987	     24.85816203	     -2.53213825	     -2.41720226	     11.61159456	      0.20266056	    -29.50961466	      1.09026579	     -7.49999987	    -14.84318364	      3.74603560	      1.41151863	     47.98453099	     -9.09081733	     13.77514312	    109.39952403	     85.75893563	     55.16845388	    -19.67630943	     30.54604963	     94.96188460	     67.25774501
      2.84583330	    -10.07211739	     -1.48440155	      4.64196587	     -0.06433775	      1.18795113	     -0.10266225	     25.96230981	     -7.35290627	    -13.31684261	      7.42638462	      0.12961486	    -34.95150723	     -8.20766854	     -7.49999987	     25.29610961	     -2.61362007	     -2.16164389	     11.07044003	      0.19321563	    -29.59156014	      0.79742404	     -7.49999987	    -15.21295902	      3.87862804	      1.61310273	     47.76725892	     -9.37447196	     14.28936697	    110.35392492	     84.47197512	     55.18883217	    -20.05371885	     30.61231539	     95.58323994	     67.18720165
      2.85000000	     -9.91972387	     -1.47120941	      4.58670522	     -0.05942682	      1.17786540	     -0.10211728	     26.03071191	     -7.29724796	    -13.24008597	      6.85080943	      0.11956918	    -34.90336493	     -8.30345477	     -7.49999987	     25.69215374	     -2.81903284	     -2.03540333	     10.53224908	      0.18382242	    -29.65490626	      0.82225924	     -7.49999987	    -15.39089696	      3.86393105	      1.80346010	     47.64367945	     -9.44097770	     14.29981168	    110.43026241	     84.64938230	     55.31203570	    -20.20060712	     30.56665846	     95.69668424	     67.26943057
      2.85416670	     -9.98938672	     -1.43230376	      4.40550008	     -0.05257848	      1.17023528	     -0.10075456	     26.32979310	     -7.19518185	    -13.16817055	      6.39773683	      0.11166157	    -34.64475531	     -8.54853431	     -7.49999987	     26.06795175	     -3.03994965	     -1.89941555	      9.68913034	      0.16910723	    -29.53105569	      0.65350897	     -7.49999987	    -15.38315220	      3.58215608	      2.47768300	     46.63690672	     -9.85128613	     13.36194919	    111.24871022	     90.16331690	     55.54286725	    -20.08501203	     31.02010438	     95.60988460	     72.10221780
      2.85833330	    -10.05537112	     -1.37624186	      4.24203111	     -0.04747945	      1.16316370	     -0.09969754	     26.71302863	     -7.10598533	    -13.67803519	      5.93496475	      0.10358468	    -34.61539882	     -8.73464836	     -7.49999987	     26.38260509	     -3.19356667	     -1.97149710	      8.75082826	      0.15273077	    -29.26276946	      0.70858751	     -7.49999987	    -15.09612875	      3.48459009	      2.70153848	     46.05824504	     -9.71691309	     13.61621042	    110.84776473	     89.14865566	     55.27866563	    -20.44098710	     31.06718414	     95.24552493	     71.65384256
      2.86250000	     -9.71732447	     -1.43279074	      4.18198987	     -0.04272667	      1.15926232	     -0.09877668	     26.65370858	     -6.88425006	    -14.27692144	      5.46732119	      0.09542276	    -35.20495004	     -9.39635412	     -7.49999987	     26.34825656	     -3.41919190	     -1.69619726	      7.93871191	      0.13855666	    -29.57385068	      0.18312572	     -7.49999987	    -15.78581792	      3.36328202	      3.11561879	     45.55921331	     -9.95611939	     13.60027243	    112.15795243	     88.19859070	     55.13953782	    -20.88323217	     31.05255467	     96.27298571	     71.35126364
      2.86666670	     -9.61385207	     -1.45673708	      4.14821396	     -0.03659174	      1.14967415	     -0.09773302	     26.76622108	     -6.65643832	    -14.79482489	      5.04260874	      0.08801013	    -35.34795631	     -9.71067808	     -7.49999987	     26.58822171	     -3.60879935	     -1.74043023	      7.26460880	      0.12679134	    -29.60640135	     -0.35976512	     -7.49999987	    -15.98883372	      3.29295016	      3.33311328	     44.96438896	     -9.99470514	     13.77875785	    112.77376463	     85.76449987	     55.07063224	    -21.46001388	     31.37052689	     96.74972543	     70.56811760
      2.87083330	     -9.42824880	     -1.44822974	      4.22862033	     -0.03038472	      1.14487352	     -0.09713773	     26.73556386	     -6.55042311	    -15.08947703	      4.54050516	      0.07924676	    -35.87011785	     -9.40849542	     -7.49999987	     26.63304980	     -3.67882004	     -1.88341803	      6.55388551	      0.11438688	    -29.56252931	     -0.75053467	     -7.49999987	    -16.23309907	      3.21735192	      3.61303661	     44.12705449	     -9.99635979	     13.70658684	    113.66792993	     85.44705200	     54.90648936	    -21.77636395	     31.68989782	     97.04177279	     70.58369950
      2.87500000	     -9.31320526	     -1.43051342	      4.24405718	     -0.02736886	      1.13427126	     -0.09657093	     26.97943911	     -6.47375501	    -14.91386063	      4.30487559	      0.07513425	    -36.18413550	     -9.03686031	     -7.49999987	     27.03520115	     -3.78438570	     -2.06312350	      5.93065268	      0.10350942	    -29.72717600	     -1.31575334	     -7.49999987	    -16.45098232	      3.01618882	      3.84264323	     43.52990549	    -10.10492015	     13.64524400	    114.43428382	     84.59153345	     55.10031065	    -22.18991871	     31.98883719	     97.48148315	     70.51815070
